<?xml version="1.0" standalone="no"?>
<!DOCTYPE svg PUBLIC "-//W3C//DTD SVG 20010904//EN"
 "http://www.w3.org/TR/2001/REC-SVG-20010904/DTD/svg10.dtd">
<svg version="1.0" xmlns="http://www.w3.org/2000/svg"
 width="299.000000pt" height="299.000000pt" viewBox="0 0 299.000000 299.000000"
 preserveAspectRatio="xMidYMid meet">
<metadata>
Created by potrace 1.14, written by Peter Selinger 2001-2017
</metadata>
<g transform="translate(0.000000,299.000000) scale(0.100000,-0.100000)"
fill="#000000" stroke="none">
<path d="M948 2983 c-3 -4 -4 -296 -3 -648 l1 -640 63 -107 62 -108 97 -57
c53 -31 126 -69 162 -84 l65 -28 5 -653 5 -653 133 0 132 -1 0 647 0 647 69
21 c38 12 74 21 80 21 6 0 63 51 127 113 l115 113 42 165 43 164 -1 545 0 545
-135 0 -135 0 0 -530 -1 -530 -28 -107 c-28 -103 -31 -109 -89 -167 -51 -53
-69 -64 -135 -85 l-76 -24 -80 35 c-144 61 -198 98 -226 155 l-25 50 0 601 0
602 -132 3 c-72 1 -133 -1 -135 -5z"/>
<path d="M245 2906 c-139 -195 -208 -413 -209 -661 -1 -253 54 -427 201 -633
47 -66 56 -69 97 -23 18 20 18 21 -27 82 -66 89 -123 210 -153 325 -30 115
-36 297 -14 424 26 151 90 306 177 428 44 62 45 64 27 84 -41 45 -50 42 -99
-26z"/>
<path d="M2651 2869 l-33 -30 19 -22 c56 -62 129 -194 164 -296 41 -117 52
-185 54 -336 2 -127 -1 -164 -19 -240 -36 -146 -85 -245 -193 -394 -11 -14 -7
-21 22 -44 l34 -27 44 55 c56 71 121 194 153 287 85 251 68 569 -45 822 -33
72 -121 214 -149 239 -17 15 -20 15 -51 -14z"/>
<path d="M496 2696 c-98 -136 -137 -268 -131 -436 5 -154 21 -237 59 -324 28
-63 93 -161 128 -194 l25 -22 31 34 31 34 -21 19 c-49 44 -107 145 -134 234
-31 102 -39 272 -18 372 17 81 69 192 119 253 l34 41 -28 27 c-15 14 -32 26
-39 26 -6 0 -31 -29 -56 -64z"/>
<path d="M2401 2668 c-29 -29 -31 -32 -16 -52 129 -178 162 -302 138 -518 -16
-149 -60 -253 -147 -352 -28 -32 -29 -29 20 -83 27 -28 145 134 183 251 23 70
28 94 37 191 22 225 -19 384 -138 537 l-45 57 -32 -31z"/>
</g>
</svg>
